<svg xmlns="http://www.w3.org/2000/svg" viewBox="0 0 580 430"><path fill="#a8783f" fill-rule="evenodd" d="M63 417C62 417 55 417 47 417C27 417 23 415 26 406C27 401 29 400 40 395C56 387 54 388 81 370C84 368 88 365 90 363C95 358 99 356 108 354C118 353 125 349 136 339C149 329 150 329 170 324C191 319 195 316 188 311C185 309 182 308 170 305C159 304 150 301 140 296C129 292 110 284 106 283C104 283 99 281 96 280C83 275 81 274 69 271C58 269 51 268 39 266C36 266 34 265 32 263L30 260L29 231C29 199 29 198 36 190C40 186 45 181 64 167C70 163 76 158 79 155C84 151 86 151 95 150C106 148 109 145 115 124C122 102 123 98 128 84C138 56 143 44 147 36C154 23 155 23 183 22C214 20 219 21 231 26C236 29 243 32 247 34C258 42 268 47 275 50C279 51 284 53 288 55C291 56 297 58 302 59C310 61 315 63 331 70C339 74 347 83 353 95C356 100 359 108 360 111C360 114 364 123 368 130C372 137 376 146 378 148C382 156 386 166 388 173C392 183 394 186 405 202C407 204 410 210 411 213C413 217 415 222 416 224C417 226 419 232 420 237C425 254 440 284 448 292C454 299 455 299 471 302C482 304 488 306 494 310C498 313 507 324 510 330C512 334 523 350 530 360C538 370 543 378 549 386C553 392 556 395 559 397C566 402 567 403 568 408C568 412 568 413 566 415C564 417 563 417 526 417C505 417 393 417 276 417C159 417 63 417 63 417ZM264 401C269 398 267 394 258 389C244 381 237 380 221 381C211 382 207 383 202 385C193 389 189 389 185 388C179 385 180 381 186 376C191 372 193 371 213 366C233 362 249 364 260 373C262 374 265 377 267 378C269 379 275 383 280 388C293 400 291 400 329 400C360 401 362 401 363 399C365 398 365 396 365 395C364 393 356 388 348 383C345 382 340 379 338 377C335 376 331 374 329 373C327 372 322 370 319 368C315 366 309 364 305 362C301 360 295 358 292 357C285 354 268 347 251 341C246 340 241 337 239 337C234 334 216 331 206 331C197 331 196 331 180 336C166 341 161 344 154 348C142 356 122 367 104 375C95 379 79 389 73 392C72 393 71 395 71 396C71 401 69 401 153 400C197 400 237 401 242 401C255 402 262 402 264 401ZM474 401C477 400 478 396 475 393C471 391 459 388 455 390C451 391 450 395 453 398C456 401 468 403 474 401ZM431 399C434 397 434 394 430 391C426 388 416 385 402 381C383 376 375 374 374 373C372 373 372 373 375 377C376 379 378 382 379 384C383 394 389 398 403 400C418 401 428 401 431 399ZM535 399C538 397 537 394 532 388C525 381 518 372 512 362C509 358 506 353 505 352C504 350 501 345 498 341C491 328 484 322 476 319C472 318 468 317 467 317C464 317 450 313 446 311C434 305 414 273 408 250C403 234 397 221 388 208C380 196 373 183 369 169C366 162 357 142 353 135C348 127 343 117 341 109C339 99 336 94 331 90C323 83 318 84 316 91C315 102 306 107 297 102C291 98 292 93 302 87C309 84 309 81 305 78C303 76 300 75 285 71C277 69 259 60 246 53C227 41 220 38 204 40C198 40 188 40 180 40C165 41 163 41 160 50C157 55 149 77 142 98C138 113 126 148 124 152C120 160 119 161 102 164C89 166 77 174 57 194C50 200 49 205 49 226C49 235 49 243 50 244C51 248 56 251 62 252C67 252 85 258 100 263C107 265 116 268 121 269C127 271 132 273 137 276C157 288 176 292 181 286C183 284 183 283 182 275C181 269 181 265 182 251C183 240 184 227 184 212C184 182 184 180 194 180C201 180 209 190 210 201C210 206 211 210 214 216C217 222 218 225 219 233C219 244 219 246 214 251C210 254 210 255 207 268C206 275 204 283 203 287C200 295 201 297 209 306L214 312L230 317C239 320 249 324 252 325C256 327 263 329 268 331C284 335 312 346 331 357C338 361 346 363 347 361C349 358 346 354 333 336C321 321 319 315 323 309C324 307 325 307 329 307C335 308 338 310 342 317C343 320 345 323 346 325C348 326 351 332 354 338C362 354 366 356 371 345C375 338 378 336 384 338C389 339 391 342 391 349C391 353 391 355 394 357C398 362 413 369 419 369C422 370 427 371 430 372C434 373 441 374 448 374C462 375 482 380 489 385C492 387 497 389 500 390C503 391 508 393 511 394C520 399 531 401 535 399ZM298 325C288 320 286 314 293 304C296 301 299 296 300 293C301 290 303 285 305 282C308 275 310 263 310 255C309 252 308 246 305 241C296 218 294 214 292 211C291 209 289 205 289 202C288 198 286 192 284 188C282 184 280 176 279 172C278 167 276 159 274 154C271 145 271 135 273 132C276 127 279 126 283 128C287 130 288 131 288 144C289 154 292 169 296 177C297 180 299 186 301 191C302 196 304 201 305 203C306 205 308 209 310 212C311 216 314 221 315 223C322 234 327 254 325 262C320 288 319 291 314 300C310 309 310 309 310 316C311 328 308 330 298 325ZM259 315C257 314 253 311 250 309C243 305 238 299 234 291C231 285 230 279 227 262L226 250L228 245C232 236 238 231 242 231C245 231 247 232 252 237C256 241 260 245 261 248C263 250 265 253 267 255C268 257 270 261 271 264C272 267 274 273 275 277C278 285 279 289 277 303C276 310 275 313 273 315C270 318 264 318 259 315ZM138 266C137 265 135 262 134 259C133 254 133 252 135 243C136 238 137 228 138 220C138 210 139 205 141 198C145 187 145 188 141 181C136 172 138 168 146 168C159 168 166 177 163 190C160 202 157 228 154 251C154 254 153 259 152 261C150 267 143 270 138 266ZM77 242C73 240 71 234 71 229C75 211 81 206 92 211C100 215 101 223 95 233C89 241 83 244 77 242ZM236 131C235 130 230 126 227 121C219 112 214 107 205 102C198 97 189 88 189 84C187 77 192 72 197 75C199 76 211 90 213 95C214 97 217 99 219 100C221 101 226 104 228 106C231 108 235 110 237 111C241 112 245 116 247 119C248 123 248 130 247 132C245 134 240 133 236 131Z"/></svg>
