<svg xmlns="http://www.w3.org/2000/svg" viewBox="0 0 800 450" fill="none">
  <rect width="800" height="450" fill="#ECE5DA"/>
  <path d="M0 450H800V230C716 224 655 217 573 233C470 253 417 282 349 299C245 325 163 304 86 314C53 318 22 324 0 334V450Z" fill="#A8B7C3"/>
  <path d="M0 450V208C35 189 78 179 129 189C190 201 238 238 281 249C337 264 380 254 432 242L444 245C408 268 390 286 361 319C325 359 304 399 288 450H0Z" fill="#BE9E77"/>
  <path d="M198 450C212 401 240 349 273 308C301 273 332 250 374 232C360 254 344 283 321 316C294 355 274 399 259 450H198Z" fill="#8F6B4D"/>
  <path d="M134 450C154 408 184 361 217 323C194 347 176 377 159 414C150 433 142 444 134 450Z" fill="#A27E5A"/>
  <path d="M454 254C503 239 560 233 607 231C686 227 740 236 800 247V273C735 262 676 258 611 262C547 265 497 270 446 287L454 254Z" fill="#BFCAD0" opacity="0.75"/>
  <path d="M28 242C89 225 146 224 200 244" stroke="#D7CEC1" stroke-width="4" stroke-linecap="round"/>
  <path d="M470 284C558 263 647 260 752 276" stroke="#D9D1C7" stroke-width="3.5" stroke-linecap="round" opacity="0.8"/>
</svg>
