<svg version="1.1" id="Layer_1" xmlns="http://www.w3.org/2000/svg" xmlns:xlink="http://www.w3.org/1999/xlink" x="0px" y="0px"
	 width="100%" viewBox="0 0 576 368" enable-background="new 0 0 576 368" xml:space="preserve">
<path fill="#000000" opacity="1.000000" stroke="none" 
	d="
M211.240479,179.436630 
	C189.998199,186.024704 168.877014,191.764648 147.085510,193.537537 
	C118.114807,195.894485 89.481636,194.192856 62.660419,181.115143 
	C58.948757,179.305374 56.046780,176.685501 53.053692,172.059494 
	C67.348518,176.743301 78.297493,170.501022 89.483078,165.987076 
	C104.596725,159.887939 119.145798,152.312210 135.051086,148.300232 
	C159.113022,142.230820 182.541824,143.289871 204.806671,155.278427 
	C209.943512,158.044388 214.964417,161.208588 219.017593,165.363205 
	C222.141159,168.564911 224.907867,168.760773 228.740952,167.237885 
	C246.546661,160.163727 264.949036,154.827347 283.151703,148.917191 
	C288.120209,147.303986 293.285278,146.061111 298.714905,147.678879 
	C274.884064,155.098251 252.217957,165.433395 228.046936,173.523956 
	C233.013016,181.389343 237.524063,188.466827 240.979660,196.234207 
	C247.324326,210.495560 251.704895,225.266495 254.049103,240.613617 
	C256.988922,259.860138 259.697571,279.106323 266.035706,297.654572 
	C271.073029,312.395874 272.285065,327.230530 264.002991,342.766632 
	C277.238922,334.471619 279.726257,322.108917 281.822205,309.579254 
	C284.292908,294.809082 279.286438,281.700287 272.747345,268.899933 
	C265.858276,255.414581 261.176178,241.413330 261.470612,225.914948 
	C261.871796,204.799225 271.408783,188.327835 286.308563,174.352356 
	C298.388641,163.021698 312.717560,155.249954 327.785553,148.777130 
	C337.553650,144.581024 347.486542,140.768524 357.958038,136.536621 
	C355.725159,134.837692 353.433350,134.690918 351.341339,134.221359 
	C330.567657,129.558975 310.020538,123.757698 288.891205,120.855415 
	C270.776794,118.367256 252.746857,118.707573 235.047791,124.219879 
	C232.020233,125.162811 229.450256,127.911285 225.544327,127.032043 
	C225.861404,123.500381 228.472946,122.692657 230.869858,121.768135 
	C248.502975,114.966713 266.839142,113.805969 285.433441,115.302650 
	C305.908936,116.950752 325.610718,122.664612 345.548889,127.124596 
	C352.364746,128.649246 359.221497,129.990707 366.055023,131.437286 
	C369.548370,132.176804 372.885712,131.828171 376.389008,130.965775 
	C395.459717,126.271133 414.658752,122.283195 434.298096,120.662399 
	C443.751160,119.882256 453.167725,118.766922 462.674042,118.703758 
	C468.197571,118.667068 473.611816,119.378365 479.011230,120.382378 
	C481.318115,120.811348 483.181183,121.931618 483.596924,124.367142 
	C484.041138,126.969475 481.689880,127.547791 480.050659,128.552780 
	C466.165375,137.065659 450.515320,139.258301 434.791656,141.330231 
	C413.895813,144.083725 393.254150,141.042725 372.578461,138.843262 
	C368.922119,138.454315 365.912537,139.327972 362.617798,140.805313 
	C352.447357,145.365646 341.975128,149.253906 331.811676,153.828720 
	C316.562042,160.692963 302.046234,168.790695 290.042847,180.753525 
	C275.801331,194.946960 267.694977,211.849060 268.614624,232.168045 
	C269.147797,243.948685 273.693237,254.848541 278.764435,265.402618 
	C286.198730,280.874725 290.639679,296.806549 287.318604,314.182373 
	C285.378571,324.332581 280.680603,332.713470 273.341400,340.070190 
	C265.951019,347.478210 256.129791,350.635956 247.761536,356.263947 
	C246.137436,357.356232 244.302948,357.922180 242.883652,355.998199 
	C241.300385,353.851959 243.109558,352.755005 244.487061,351.519653 
	C247.583160,348.743195 250.860703,346.121338 253.649979,343.059021 
	C263.681641,332.045441 264.849396,318.739319 261.927185,305.083984 
	C258.381165,288.513733 253.074951,272.319305 250.435089,255.546295 
	C248.180771,241.222900 245.760849,227.006500 241.089493,213.197678 
	C237.759079,203.352783 233.589752,193.984665 228.352814,185.039658 
	C222.583649,175.185577 222.222977,175.021194 211.240479,179.436630 
M83.214531,184.168945 
	C104.551262,189.957886 126.214302,190.428574 147.998901,187.819153 
	C167.023224,185.540375 185.638962,181.254074 203.876877,175.383301 
	C208.050613,174.039780 212.535355,173.360626 216.606918,170.207397 
	C208.035233,161.991165 198.540039,156.109375 187.360153,153.345261 
	C163.000748,147.322617 139.588135,150.586395 116.799614,160.673294 
	C100.337646,167.959854 83.896721,175.472244 65.365120,177.909744 
	C70.765884,181.368912 76.484604,182.934296 83.214531,184.168945 
M452.602722,124.204132 
	C430.062408,125.612289 407.813110,128.998657 385.815918,134.161316 
	C416.060455,137.688843 445.873596,137.180206 474.420746,124.189789 
	C467.473297,124.189789 460.525848,124.189789 452.602722,124.204132 
z"/>
<path fill="#000000" opacity="1.000000" stroke="none" 
	d="
M164.956390,128.737213 
	C177.110001,129.165512 188.593689,131.097290 200.123413,132.703232 
	C216.422653,134.973465 232.743210,137.554047 249.263641,136.705368 
	C258.373962,136.237350 267.503571,135.280762 276.236023,132.141434 
	C278.729156,131.245148 281.293945,129.809998 284.594482,130.898651 
	C283.237427,133.557190 280.866180,134.093689 278.864960,135.027405 
	C262.962372,142.447174 246.171051,143.344727 229.025528,141.843887 
	C207.813828,139.987076 186.911713,135.458267 165.647629,134.245117 
	C147.442383,133.206482 129.436340,135.365616 111.668427,139.443054 
	C109.444237,139.953476 107.052780,141.205719 105.275879,138.708374 
	C103.343468,135.992447 104.826881,133.543320 106.454315,131.414719 
	C107.645790,129.856323 109.186623,128.479630 110.796967,127.340279 
	C124.932709,117.339035 140.366547,110.100174 157.154709,105.783379 
	C161.340546,104.707069 165.510880,103.570671 169.691696,102.474655 
	C171.930267,101.887802 173.671448,100.824249 174.051315,98.287987 
	C174.675171,94.122665 177.477539,91.535027 180.755203,89.404831 
	C185.939636,86.035385 191.396439,83.124748 197.364365,81.441154 
	C228.312836,72.710442 259.615295,71.016045 291.202057,77.347908 
	C313.687805,81.855385 336.037476,87.072716 358.585052,91.228996 
	C371.659637,93.639084 384.998627,94.715523 398.373505,93.649620 
	C401.363342,93.411346 404.130035,92.292381 406.953735,90.928146 
	C409.305237,94.068336 407.419037,96.260696 405.891113,98.247139 
	C401.150726,104.409866 394.497528,108.114784 387.459900,110.652939 
	C375.876587,114.830498 363.994720,118.168770 351.602814,119.062172 
	C349.735382,119.196815 347.667145,119.990105 344.922302,117.251236 
	C363.431946,113.854019 381.548248,111.491501 397.602325,99.666206 
	C369.424133,101.299202 343.310181,95.616379 317.473999,89.053711 
	C289.847534,82.036293 262.054504,77.162018 233.542664,79.469284 
	C216.658783,80.835571 199.694092,83.050285 184.409271,91.387451 
	C181.114639,93.184525 177.154922,94.916344 177.494720,100.676819 
	C200.258179,97.564941 222.707062,95.038765 244.943207,101.485977 
	C245.913483,101.767296 246.622055,102.565582 246.435883,104.384422 
	C242.539505,106.184334 237.936951,105.501038 233.670059,106.100082 
	C222.313797,107.694427 210.861282,108.611259 199.441711,109.743568 
	C192.918274,110.390381 186.455765,110.182167 180.240112,107.781464 
	C177.956909,106.899605 175.599792,106.938423 173.344803,107.494179 
	C153.690750,112.338028 134.676422,118.792229 117.644867,130.105286 
	C116.398888,130.932922 115.194771,131.829987 114.025635,132.763000 
	C113.681595,133.037552 113.525024,133.547012 112.554459,135.155212 
	C130.199615,130.236252 147.218384,128.385727 164.956390,128.737213 
M189.908295,105.145081 
	C188.777740,105.471169 187.389969,104.758865 186.348022,105.968239 
	C193.273346,107.235764 220.740234,105.616516 226.823395,103.448486 
	C214.354645,102.826988 202.488495,103.070580 189.908295,105.145081 
z"/>
<path fill="#000000" opacity="1.000000" stroke="none" 
	d="
M503.540375,180.693817 
	C487.274963,187.219986 470.619904,189.789658 453.616760,191.296982 
	C433.214569,193.105621 413.037292,191.683990 392.889923,188.843506 
	C388.300598,188.196487 385.038757,188.388199 381.767975,192.717209 
	C376.368805,199.863297 368.352356,204.047318 360.326508,207.839355 
	C348.731934,213.317520 336.694550,217.741119 324.851074,222.628204 
	C314.157104,227.040955 304.195709,232.739212 296.649872,241.840286 
	C292.207672,247.198090 289.794495,253.585388 287.730896,260.123108 
	C287.205933,261.786255 287.628174,263.390045 287.956604,265.038544 
	C288.434906,267.439331 288.805176,269.888489 288.068848,272.371918 
	C283.144714,270.824554 279.813873,263.690857 280.963226,257.578033 
	C283.842163,242.266449 293.009827,231.506500 306.059174,223.838867 
	C316.874969,217.483612 328.738464,213.503479 340.560211,209.455765 
	C353.482727,205.031174 366.329346,200.376465 377.337128,191.916382 
	C378.710297,190.861023 380.659790,190.246628 380.775757,187.720047 
	C368.272400,185.666870 355.741028,184.983582 343.118683,185.033203 
	C330.432404,185.083084 318.349274,188.008133 306.339844,193.028351 
	C306.256378,189.202774 308.520874,188.725723 310.165405,187.883591 
	C326.722534,179.404922 344.518097,177.501480 362.599579,179.501877 
	C395.212006,183.109879 427.809540,186.263474 460.676331,184.753403 
	C475.095398,184.090897 488.917694,180.875366 502.053345,174.395432 
	C500.696289,174.486679 499.291016,174.380905 497.989594,174.699448 
	C483.783783,178.176743 469.639771,176.341248 455.329498,175.086670 
	C436.998688,173.479614 419.431274,167.802963 401.264069,165.931335 
	C384.373779,164.191284 367.267761,163.510040 351.650146,172.562439 
	C351.094025,172.884766 350.407898,173.019775 349.763214,173.135101 
	C349.481445,173.185501 349.151367,172.965927 348.467896,172.750839 
	C349.364014,170.158890 351.580048,169.130798 353.658234,167.967209 
	C363.095428,162.683334 373.559326,161.633163 384.023285,160.820663 
	C402.004150,159.424500 419.399933,163.586136 436.959320,166.479385 
	C454.700256,169.402542 472.604767,170.877090 490.618011,169.310577 
	C495.088867,168.921783 499.547272,168.358810 503.996857,167.766525 
	C507.906403,167.246140 511.474762,167.806702 514.892151,170.856995 
	C513.268005,176.295120 508.378204,178.202591 503.540375,180.693817 
z"/>
</svg>